<svg id="Layer_1" data-name="Layer 1" xmlns="http://www.w3.org/2000/svg" viewBox="0 0 397.98 83.45"><defs><style>.cls-1{fill:#28281b;}.cls-2{fill:#f28498;}.cls-3{fill:#1f5ac6;}.cls-4{fill:#1c880f;}.cls-5{fill:#f6bc1c;}</style></defs><title>Case Kit logo - final</title><path class="cls-1" d="M212.26,102.24A17.63,17.63,0,0,0,206,97.59a17,17,0,0,0-6.1-1.16,20.31,20.31,0,0,0-8.25,1.62,18.87,18.87,0,0,0-6.34,4.48,20.22,20.22,0,0,0-4.1,6.67,22.87,22.87,0,0,0-1.46,8.21,25.19,25.19,0,0,0,1.46,8.71,20.28,20.28,0,0,0,4.1,6.88,18.94,18.94,0,0,0,6.34,4.56,19.84,19.84,0,0,0,8.25,1.66,15.22,15.22,0,0,0,6.93-1.7,18.87,18.87,0,0,0,6.26-5.43l8.62,6.14a23.57,23.57,0,0,1-9.7,8,30.37,30.37,0,0,1-12.19,2.48,34.44,34.44,0,0,1-12.48-2.19,28,28,0,0,1-16.21-15.88,32.54,32.54,0,0,1-2.32-12.52,34,34,0,0,1,2.32-12.82,28.74,28.74,0,0,1,6.43-9.82,28,28,0,0,1,9.78-6.26A34.23,34.23,0,0,1,199.82,87a28.8,28.8,0,0,1,11.07,2.11,26,26,0,0,1,9.5,7.18Z" transform="translate(-71.17 -75.41)"/><path class="cls-1" d="M253.72,141.71h-.24a12.8,12.8,0,0,1-5.48,4.93,17.19,17.19,0,0,1-7.29,1.54,19.26,19.26,0,0,1-5.35-.75,14.54,14.54,0,0,1-4.65-2.24,11.52,11.52,0,0,1-3.27-3.73,10.55,10.55,0,0,1-1.25-5.22,12,12,0,0,1,1.17-5.52,11.32,11.32,0,0,1,3.1-3.81,15.7,15.7,0,0,1,4.52-2.45,31.55,31.55,0,0,1,5.35-1.37,47.65,47.65,0,0,1,5.6-.58q2.82-.12,5.31-.12h2.48v-1.08a6.46,6.46,0,0,0-2.57-5.6,10.87,10.87,0,0,0-6.55-1.86,15.28,15.28,0,0,0-5.88,1.12,14.8,14.8,0,0,0-4.73,3l-5.22-5.22a19.16,19.16,0,0,1,7.75-4.89,28.37,28.37,0,0,1,9.16-1.5,22.9,22.9,0,0,1,7.13,1,15.6,15.6,0,0,1,4.81,2.44,11,11,0,0,1,2.94,3.44,16,16,0,0,1,1.5,3.94,22.51,22.51,0,0,1,.54,3.86c0,1.24.08,2.34.08,3.27v22.89h-9Zm-.58-12.36h-2.07c-1.38,0-2.93.06-4.64.17a23.86,23.86,0,0,0-4.85.79,11.06,11.06,0,0,0-3.86,1.82,4,4,0,0,0-1.58,3.36,4.17,4.17,0,0,0,.63,2.36,5.52,5.52,0,0,0,1.61,1.62,6.8,6.8,0,0,0,2.24.95,10.58,10.58,0,0,0,2.49.29q5.14,0,7.59-2.44a9,9,0,0,0,2.44-6.68Z" transform="translate(-71.17 -75.41)"/><path class="cls-1" d="M293.6,118.41a9.1,9.1,0,0,0-7.79-4.07,8.38,8.38,0,0,0-3.9,1,3.38,3.38,0,0,0-1.91,3.23,2.81,2.81,0,0,0,1.58,2.66,17.53,17.53,0,0,0,4,1.41l5.18,1.2a20.07,20.07,0,0,1,5.18,1.91,11.23,11.23,0,0,1,4,3.52,10.51,10.51,0,0,1,1.58,6.14,11.13,11.13,0,0,1-1.53,6,12.18,12.18,0,0,1-4,3.94,17.8,17.8,0,0,1-5.52,2.15,29.06,29.06,0,0,1-6.13.67,26.52,26.52,0,0,1-8.55-1.33,16.2,16.2,0,0,1-7-4.81l6.63-6.22a18.41,18.41,0,0,0,4.11,3.52,9.83,9.83,0,0,0,5.35,1.37,10.37,10.37,0,0,0,2.23-.25,7,7,0,0,0,2.16-.83,5.15,5.15,0,0,0,1.62-1.45,3.72,3.72,0,0,0-1-5.1,13.92,13.92,0,0,0-4-1.61c-1.6-.42-3.33-.8-5.18-1.16a20.13,20.13,0,0,1-5.18-1.74,11,11,0,0,1-4-3.36,10,10,0,0,1-1.58-6,11.67,11.67,0,0,1,1.37-5.77,12,12,0,0,1,3.61-4,15.56,15.56,0,0,1,5.14-2.32,23.43,23.43,0,0,1,5.89-.75,23.67,23.67,0,0,1,7.87,1.37,12.92,12.92,0,0,1,6.31,4.69Z" transform="translate(-71.17 -75.41)"/><path class="cls-1" d="M316.15,130.76a10.1,10.1,0,0,0,3.48,7,10.91,10.91,0,0,0,7.22,2.49,11.83,11.83,0,0,0,6.26-1.54,17.48,17.48,0,0,0,4.43-3.85l7.13,5.39a20.18,20.18,0,0,1-7.79,6.13,22.9,22.9,0,0,1-9,1.83,23.84,23.84,0,0,1-8.46-1.5,19.78,19.78,0,0,1-11.48-10.82,22.5,22.5,0,0,1,0-17.16,19.78,19.78,0,0,1,11.48-10.82,23.84,23.84,0,0,1,8.46-1.5,19.48,19.48,0,0,1,7.59,1.45,16.4,16.4,0,0,1,5.89,4.19,19.38,19.38,0,0,1,3.81,6.76A28.72,28.72,0,0,1,346.5,128v2.73Zm20.4-7.46a9.37,9.37,0,0,0-2.74-6.92,10.25,10.25,0,0,0-7.38-2.53,9.65,9.65,0,0,0-7.09,2.57,11.49,11.49,0,0,0-3.19,6.88Z" transform="translate(-71.17 -75.41)"/><path class="cls-1" d="M368.24,88.47h10.45v24.88h.5l24.29-24.88h14.1l-27.45,27.12,29.27,31.59H404.72l-25.45-28.86h-.58v28.86H368.24Z" transform="translate(-71.17 -75.41)"/><path class="cls-1" d="M422.88,93.86a5.72,5.72,0,0,1,1.79-4.18,6.1,6.1,0,0,1,4.52-1.79,6.61,6.61,0,0,1,4.6,1.7,5.83,5.83,0,0,1,0,8.54,6.56,6.56,0,0,1-4.6,1.7,6.1,6.1,0,0,1-4.52-1.78A5.73,5.73,0,0,1,422.88,93.86Zm1.41,13.52h9.95v39.8h-9.95Z" transform="translate(-71.17 -75.41)"/><path class="cls-1" d="M440,115.84v-8.46h8.21V95.85h9.95v11.53h10.95v8.46H458.2v17.41a8.73,8.73,0,0,0,1.12,4.73q1.13,1.74,4.44,1.74a16.44,16.44,0,0,0,2.9-.29,6.09,6.09,0,0,0,2.49-1v8.38a13,13,0,0,1-3.86,1,33,33,0,0,1-4,.29,20.1,20.1,0,0,1-6.51-.88,8.61,8.61,0,0,1-4-2.65,10,10,0,0,1-2-4.43,31.08,31.08,0,0,1-.54-6.14V115.84Z" transform="translate(-71.17 -75.41)"/><path class="cls-2" d="M112.9,138m0,20.86V138A20.89,20.89,0,0,1,92,117.13H71.17a41.72,41.72,0,0,0,41.73,41.72h0" transform="translate(-71.17 -75.41)"/><path class="cls-3" d="M92,117.13m-20.86,0H92A20.89,20.89,0,0,1,112.9,96.27V75.41a41.72,41.72,0,0,0-41.73,41.72h0" transform="translate(-71.17 -75.41)"/><path class="cls-4" d="M112.9,138m0-20.86V138a20.89,20.89,0,0,1,20.86,20.86h20.86a41.72,41.72,0,0,0-41.72-41.72h0" transform="translate(-71.17 -75.41)"/><path class="cls-5" d="M133.76,75.41m20.86,0H133.76A20.89,20.89,0,0,1,112.9,96.27v20.86a41.72,41.72,0,0,0,41.72-41.72h0" transform="translate(-71.17 -75.41)"/></svg>