<?xml version="1.0" encoding="UTF-8" standalone="no"?>
<!DOCTYPE svg PUBLIC "-//W3C//DTD SVG 1.1//EN" "http://www.w3.org/Graphics/SVG/1.1/DTD/svg11.dtd">
<svg width="100%" height="100%" viewBox="0 0 320 52" version="1.1" xmlns="http://www.w3.org/2000/svg" xmlns:xlink="http://www.w3.org/1999/xlink" xml:space="preserve" xmlns:serif="http://www.serif.com/" style="fill-rule:evenodd;clip-rule:evenodd;stroke-linejoin:round;stroke-miterlimit:2;">
    <g id="Artboard1" transform="matrix(1.01916,0,0,0.658137,-25.479,-63.8393)">
        <rect x="25" y="97" width="313.179" height="79" style="fill:none;"/>
        <g>
            <g transform="matrix(0.610963,0,0,0.946108,25,97)">
                <path d="M41.7,83.4L41.7,62.6C30.2,62.6 20.8,53.3 20.8,41.7L0,41.7C0,64.8 18.7,83.4 41.7,83.4" style="fill:rgb(255,133,157);fill-rule:nonzero;"/>
            </g>
            <g transform="matrix(0.610963,0,0,0.946108,25,97)">
                <path d="M0,41.7L20.9,41.7C20.9,30.2 30.3,20.8 41.8,20.8L41.8,0C18.7,0 0,18.7 0,41.7" style="fill:rgb(1,114,174);fill-rule:nonzero;"/>
            </g>
            <g transform="matrix(0.610963,0,0,0.946108,25,97)">
                <path d="M41.7,41.7L41.7,62.6C53.2,62.6 62.5,71.9 62.6,83.5L83.5,83.5C83.5,60.4 64.8,41.7 41.7,41.7" style="fill:rgb(72,153,71);fill-rule:nonzero;"/>
            </g>
            <g transform="matrix(0.610963,0,0,0.946108,25,97)">
                <path d="M83.4,0L62.6,0C62.6,11.5 53.3,20.8 41.7,20.9L41.7,41.8C64.8,41.7 83.4,23 83.4,0" style="fill:rgb(255,207,59);fill-rule:nonzero;"/>
            </g>
            <g transform="matrix(0.981202,0,0,1.51944,30.8872,97)">
                <g transform="matrix(0.842557,0,0,0.842557,-22.1584,-9.76661)">
                    <path d="M351.7,18.4C351.7,16.8 352.3,15.3 353.5,14.2C354.7,13 356.3,12.4 358,12.4C359.7,12.4 361.3,13 362.6,14.1C365,16.3 365.1,20 362.9,22.3C362.8,22.4 362.7,22.5 362.6,22.6C361.3,23.7 359.7,24.3 358,24.3C356.3,24.4 354.7,23.7 353.5,22.5C352.3,21.6 351.7,20 351.7,18.4ZM353.1,32L363.1,32L363.1,71.8L353.1,71.8L353.1,32Z" style="fill:rgb(52,64,80);fill-rule:nonzero;"/>
                </g>
                <g transform="matrix(0.842557,0,0,0.842557,-22.1584,-9.76661)">
                    <path d="M368.8,40.4L368.8,32L377,32L377,20.4L387,20.4L387,32L398,32L398,40.5L387,40.5L387,57.9C386.9,59.6 387.3,61.2 388.1,62.6C388.9,63.8 390.3,64.3 392.5,64.3C393.5,64.3 394.4,64.2 395.4,64C396.3,63.9 397.1,63.5 397.9,63L397.9,71.4C396.7,71.9 395.4,72.3 394,72.4C392.7,72.6 391.3,72.7 390,72.7C387.8,72.8 385.6,72.5 383.5,71.8C381.9,71.3 380.6,70.4 379.5,69.2C378.5,67.9 377.8,66.4 377.5,64.8C377.1,62.8 376.9,60.7 377,58.7L377,40.4L368.8,40.4Z" style="fill:rgb(52,64,80);fill-rule:nonzero;"/>
                </g>
                <g transform="matrix(0.842557,0,0,0.842557,-22.1584,-9.76661)">
                    <path d="M141.1,26.8C139.4,24.8 137.2,23.2 134.8,22.1C132.9,21.3 130.8,20.9 128.7,20.9C125.9,20.9 123.1,21.4 120.5,22.5C118.1,23.5 115.9,25.1 114.2,27C112.4,28.9 111,31.2 110.1,33.7C109.1,36.3 108.6,39.1 108.6,41.9C108.6,44.9 109.1,47.8 110.1,50.6C111,53.1 112.4,55.5 114.2,57.5C116,59.4 118.1,61 120.5,62.1C123.1,63.2 125.9,63.8 128.7,63.8C131.1,63.8 133.5,63.2 135.6,62.1C138.1,60.8 140.2,58.9 141.9,56.7L150.5,62.8C148.1,66.3 144.7,69.1 140.8,70.8C137,72.5 132.8,73.3 128.6,73.3C124.3,73.3 120.1,72.6 116.1,71.1C108.7,68.3 102.8,62.6 99.9,55.2C98.3,51.2 97.5,47 97.6,42.7C97.5,38.3 98.3,34 99.9,29.9C101.3,26.2 103.5,22.9 106.3,20.1C109.1,17.4 112.4,15.2 116.1,13.8C120.1,12.3 124.3,11.5 128.6,11.6C132.4,11.6 136.2,12.3 139.7,13.7C143.4,15.3 146.6,17.8 149.2,20.9L141.1,26.8Z" style="fill:rgb(52,64,80);fill-rule:nonzero;"/>
                </g>
                <g transform="matrix(0.842557,0,0,0.842557,-22.1584,-9.76661)">
                    <path d="M182.6,66.3L182.4,66.3C181.1,68.4 179.2,70.2 176.9,71.2C174.6,72.2 172.1,72.8 169.6,72.7C167.8,72.7 166,72.5 164.2,71.9C162.5,71.4 161,70.7 159.6,69.7C158.3,68.7 157.1,67.4 156.3,66C155.4,64.4 155,62.6 155.1,60.8C155,58.9 155.4,57 156.3,55.3C157,53.8 158.1,52.5 159.4,51.5C160.8,50.4 162.3,49.6 163.9,49.1C165.6,48.5 167.4,48 169.3,47.7C171.2,47.4 173,47.2 174.9,47.1C176.8,47 178.6,47 180.2,47L182.7,47L182.7,45.9C182.8,43.7 181.9,41.6 180.1,40.3C178.2,39 175.9,38.3 173.5,38.4C171.5,38.4 169.5,38.8 167.6,39.5C165.8,40.2 164.2,41.2 162.9,42.5L157.7,37.3C159.8,35.1 162.5,33.4 165.5,32.4C168.5,31.4 171.5,30.9 174.7,30.9C177.1,30.9 179.5,31.2 181.8,31.9C183.5,32.4 185.2,33.3 186.6,34.3C187.8,35.2 188.8,36.4 189.5,37.7C190.2,38.9 190.7,40.3 191,41.6C191.3,42.9 191.5,44.2 191.5,45.5C191.5,46.7 191.6,47.8 191.6,48.8L191.6,71.7L182.6,71.7L182.6,66.3ZM182,53.9L179.9,53.9C178.5,53.9 177,54 175.3,54.1C173.7,54.2 172,54.5 170.4,54.9C169,55.3 167.7,55.9 166.5,56.7C165.5,57.5 164.9,58.7 164.9,60.1C164.9,60.9 165.1,61.8 165.5,62.5C165.9,63.1 166.5,63.7 167.1,64.1C167.8,64.5 168.5,64.9 169.3,65C170.1,65.2 171,65.3 171.8,65.3C175.2,65.3 177.8,64.5 179.4,62.9C181.1,61.1 182,58.7 181.8,56.2L181.8,53.9L182,53.9Z" style="fill:rgb(52,64,80);fill-rule:nonzero;"/>
                </g>
                <g transform="matrix(0.842557,0,0,0.842557,-22.1584,-9.76661)">
                    <path d="M222.4,43C220.7,40.4 217.7,38.9 214.6,38.9C213.2,38.9 211.9,39.3 210.7,39.9C209.5,40.5 208.7,41.8 208.8,43.1C208.7,44.2 209.4,45.3 210.4,45.8C211.7,46.4 213,46.9 214.4,47.2L219.6,48.4C221.4,48.8 223.1,49.4 224.8,50.3C226.4,51.1 227.8,52.3 228.8,53.8C229.9,55.6 230.5,57.8 230.4,59.9C230.5,62 229.9,64.1 228.9,65.9C227.9,67.5 226.5,68.9 224.9,69.8C223.2,70.8 221.3,71.5 219.4,71.9C217.4,72.3 215.3,72.6 213.3,72.6C210.4,72.6 207.5,72.2 204.8,71.3C202.1,70.3 199.7,68.7 197.8,66.5L204.4,60.3C205.6,61.7 207,62.9 208.5,63.8C210.1,64.8 212,65.2 213.9,65.2C214.7,65.2 215.4,65.1 216.1,65C216.9,64.8 217.6,64.6 218.3,64.2C218.9,63.8 219.5,63.3 219.9,62.8C221,61.1 220.6,58.8 218.9,57.7C217.7,57 216.3,56.4 214.9,56.1C213.3,55.7 211.6,55.3 209.7,54.9C207.9,54.6 206.2,54 204.5,53.2C202.9,52.4 201.5,51.3 200.5,49.8C199.4,48 198.8,45.9 198.9,43.8C198.9,41.8 199.3,39.8 200.3,38C201.2,36.4 202.4,35 203.9,34C205.5,32.9 207.2,32.1 209,31.7C210.9,31.2 212.9,30.9 214.9,30.9C217.6,30.9 220.2,31.4 222.8,32.3C225.3,33.2 227.5,34.8 229.1,37L222.4,43Z" style="fill:rgb(52,64,80);fill-rule:nonzero;"/>
                </g>
                <g transform="matrix(0.842557,0,0,0.842557,-22.1584,-9.76661)">
                    <path d="M245,55.3C245.2,58 246.4,60.5 248.5,62.3C250.5,64 253.1,64.9 255.7,64.8C257.9,64.9 260.1,64.3 262,63.3C263.7,62.3 265.2,61 266.4,59.4L273.5,64.8C271.5,67.5 268.8,69.6 265.7,70.9C262.9,72.1 259.8,72.7 256.7,72.7C253.8,72.7 250.9,72.2 248.2,71.2C243,69.3 238.9,65.4 236.7,60.4C234.4,54.9 234.4,48.7 236.7,43.2C238.9,38.2 243,34.2 248.2,32.4C250.9,31.4 253.8,30.9 256.7,30.9C259.3,30.9 261.9,31.4 264.3,32.3C266.6,33.2 268.6,34.7 270.2,36.5C271.9,38.5 273.2,40.8 274,43.3C274.9,46.3 275.4,49.4 275.3,52.5L275.3,55.2L245,55.3ZM265.4,47.9C265.5,45.3 264.5,42.8 262.7,41C260.7,39.2 258,38.3 255.3,38.5C252.7,38.4 250.1,39.3 248.2,41.1C246.4,43 245.3,45.4 245,48L265.4,48L265.4,47.9Z" style="fill:rgb(52,64,80);fill-rule:nonzero;"/>
                </g>
                <g transform="matrix(0.842557,0,0,0.842557,-22.1584,-9.76661)">
                    <path d="M297.1,13.1L307.6,13.1L307.6,38L308.1,38L332.4,13.1L346.5,13.1L319,40.2L348.3,71.8L333.6,71.8L308.1,42.9L307.5,42.9L307.5,71.8L297,71.8L297,13.1L297.1,13.1Z" style="fill:rgb(52,64,80);fill-rule:nonzero;"/>
                </g>
            </g>
        </g>
    </g>
</svg>
