<?xml version="1.0" encoding="UTF-8" standalone="no"?>
<!DOCTYPE svg PUBLIC "-//W3C//DTD SVG 1.1//EN" "http://www.w3.org/Graphics/SVG/1.1/DTD/svg11.dtd">
<svg width="100%" height="100%" viewBox="0 0 400 400" version="1.1" xmlns="http://www.w3.org/2000/svg" xmlns:xlink="http://www.w3.org/1999/xlink" xml:space="preserve" xmlns:serif="http://www.serif.com/" style="fill-rule:evenodd;clip-rule:evenodd;stroke-linejoin:round;stroke-miterlimit:2;">
    <g transform="matrix(4.79042,0,0,4.79042,7.10543e-15,1.13687e-13)">
        <path d="M41.7,83.4L41.7,62.6C30.2,62.6 20.8,53.3 20.8,41.7L0,41.7C0,64.8 18.7,83.4 41.7,83.4" style="fill:rgb(255,113,166);fill-rule:nonzero;"/>
    </g>
    <g transform="matrix(4.79042,0,0,4.79042,7.10543e-15,1.13687e-13)">
        <path d="M0,41.7L20.9,41.7C20.9,30.2 30.3,20.8 41.8,20.8L41.8,0C18.7,0 0,18.7 0,41.7" style="fill:rgb(13,84,162);fill-rule:nonzero;"/>
    </g>
    <g transform="matrix(4.79042,0,0,4.79042,7.10543e-15,1.13687e-13)">
        <path d="M41.7,41.7L41.7,62.6C53.2,62.6 62.5,71.9 62.6,83.5L83.5,83.5C83.5,60.4 64.8,41.7 41.7,41.7" style="fill:rgb(28,136,15);fill-rule:nonzero;"/>
    </g>
    <g transform="matrix(4.79042,0,0,4.79042,7.10543e-15,1.13687e-13)">
        <path d="M83.4,0L62.6,0C62.6,11.5 53.3,20.8 41.7,20.9L41.7,41.8C64.8,41.7 83.4,23 83.4,0" style="fill:rgb(255,212,0);fill-rule:nonzero;"/>
    </g>
</svg>
