<?xml version="1.0" encoding="UTF-8" standalone="no"?>
<!DOCTYPE svg PUBLIC "-//W3C//DTD SVG 1.1//EN" "http://www.w3.org/Graphics/SVG/1.1/DTD/svg11.dtd">
<svg width="100%" height="100%" viewBox="0 0 190 1500" version="1.1" xmlns="http://www.w3.org/2000/svg" xmlns:xlink="http://www.w3.org/1999/xlink" xml:space="preserve" xmlns:serif="http://www.serif.com/" style="fill-rule:evenodd;clip-rule:evenodd;stroke-miterlimit:10;">
    <g transform="matrix(0,-2,-2,0,96.9998,32.9817)">
        <ellipse cx="-37.15" cy="0" rx="37.149" ry="37.15" style="fill:none;stroke:rgb(28,136,15);stroke-width:11px;"/>
    </g>
    <g transform="matrix(-1.60608,1.19184,1.19184,1.60608,96.3497,171.873)">
        <path d="M5.908,-44.602C16.308,-30.587 13.367,-10.725 -0.647,-0.326L5.908,8.508C24.792,-5.506 28.756,-32.272 14.741,-51.157L5.908,-44.602Z" style="fill:rgb(28,136,15);fill-rule:nonzero;"/>
    </g>
    <g transform="matrix(0,-2,-2,0,96.9998,147.757)">
        <ellipse cx="-37.15" cy="0" rx="37.149" ry="37.15" style="fill:none;stroke:rgb(255,212,0);stroke-width:11px;"/>
    </g>
    <g transform="matrix(-1.60608,1.19184,1.19184,1.60608,96.3497,171.873)">
        <path d="M5.908,-44.602C16.308,-30.587 13.367,-10.725 -0.647,-0.326L5.908,8.508C24.792,-5.506 28.756,-32.272 14.741,-51.157L5.908,-44.602Z" style="fill:rgb(28,136,15);fill-rule:nonzero;"/>
    </g>
    <g transform="matrix(-1.60608,1.19184,1.19184,1.60608,96.3497,518.601)">
        <path d="M5.908,-44.602C16.308,-30.587 13.367,-10.725 -0.647,-0.326L5.908,8.508C24.792,-5.506 28.756,-32.272 14.741,-51.157L5.908,-44.602Z" style="fill:rgb(242,132,152);fill-rule:nonzero;"/>
    </g>
    <g transform="matrix(-1.60608,1.19184,1.19184,1.60608,95.8477,983.072)">
        <path d="M5.908,-44.602C16.308,-30.587 13.367,-10.725 -0.647,-0.326L5.908,8.508C24.792,-5.506 28.756,-32.271 14.741,-51.157L5.908,-44.602Z" style="fill:rgb(242,132,152);fill-rule:nonzero;"/>
    </g>
    <g transform="matrix(0,-2,-2,0,96.9998,262.823)">
        <ellipse cx="-37.15" cy="0" rx="37.149" ry="37.15" style="fill:none;stroke:rgb(13,84,162);stroke-width:11px;"/>
    </g>
    <g transform="matrix(-1.60608,1.19184,1.19184,1.60608,96.3497,287.116)">
        <path d="M5.908,-44.602C16.308,-30.587 13.367,-10.725 -0.647,-0.326L5.908,8.508C24.792,-5.506 28.756,-32.272 14.741,-51.157L5.908,-44.602Z" style="fill:rgb(255,212,0);fill-rule:nonzero;"/>
    </g>
    <g transform="matrix(0,-2,-2,0,96.9998,379.709)">
        <ellipse cx="-37.15" cy="0" rx="37.149" ry="37.15" style="fill:none;stroke:rgb(255,113,166);stroke-width:11px;"/>
    </g>
    <g transform="matrix(-1.60608,1.19184,1.19184,1.60608,96.3497,401.653)">
        <path d="M5.908,-44.602C16.308,-30.587 13.367,-10.725 -0.647,-0.326L5.908,8.508C24.792,-5.506 28.756,-32.272 14.741,-51.157L5.908,-44.602Z" style="fill:rgb(13,84,162);fill-rule:nonzero;"/>
    </g>
    <g transform="matrix(0,-2,-2,0,96.4998,497.453)">
        <ellipse cx="-37.15" cy="0" rx="37.149" ry="37.15" style="fill:none;stroke:rgb(28,136,15);stroke-width:11px;"/>
    </g>
    <g transform="matrix(-1.60608,1.19184,1.19184,1.60608,96.3497,518.601)">
        <path d="M5.908,-44.602C16.308,-30.587 13.367,-10.725 -0.647,-0.326L5.908,8.508C24.792,-5.506 28.756,-32.272 14.741,-51.157L5.908,-44.602Z" style="fill:rgb(255,113,166);fill-rule:nonzero;"/>
    </g>
    <g transform="matrix(0,-2,-2,0,96.4988,612.228)">
        <circle cx="-37.15" cy="0" r="37.15" style="fill:none;stroke:rgb(255,212,0);stroke-width:11px;"/>
    </g>
    <g transform="matrix(-1.60608,1.19184,1.19184,1.60608,95.8477,751.587)">
        <path d="M5.908,-44.602C16.307,-30.588 13.367,-10.725 -0.647,-0.326L5.908,8.508C24.792,-5.506 28.756,-32.272 14.741,-51.157L5.908,-44.602Z" style="fill:rgb(246,188,28);fill-rule:nonzero;"/>
    </g>
    <g transform="matrix(-1.60608,1.19184,1.19184,1.60608,95.8477,636.344)">
        <path d="M5.908,-44.602C16.308,-30.587 13.367,-10.725 -0.647,-0.326L5.908,8.508C24.792,-5.506 28.756,-32.272 14.741,-51.157L5.908,-44.602Z" style="fill:rgb(28,136,15);fill-rule:nonzero;"/>
    </g>
    <g transform="matrix(0,-2,-2,0,96.4998,727.293)">
        <ellipse cx="-37.15" cy="0" rx="37.149" ry="37.15" style="fill:none;stroke:rgb(13,84,162);stroke-width:11px;"/>
    </g>
    <g transform="matrix(-1.60608,1.19184,1.19184,1.60608,95.8477,866.124)">
        <path d="M5.908,-44.602C16.307,-30.588 13.367,-10.725 -0.647,-0.326L5.908,8.508C24.792,-5.506 28.756,-32.272 14.741,-51.157L5.908,-44.602Z" style="fill:rgb(31,90,198);fill-rule:nonzero;"/>
    </g>
    <g transform="matrix(-1.60608,1.19184,1.19184,1.60608,95.8477,751.587)">
        <path d="M5.908,-44.602C16.307,-30.588 13.367,-10.725 -0.647,-0.326L5.908,8.508C24.792,-5.506 28.756,-32.272 14.741,-51.157L5.908,-44.602Z" style="fill:rgb(255,212,0);fill-rule:nonzero;"/>
    </g>
    <g transform="matrix(0,-2,-2,0,96.4998,844.18)">
        <ellipse cx="-37.15" cy="0" rx="37.149" ry="37.15" style="fill:none;stroke:rgb(255,113,166);stroke-width:11px;"/>
    </g>
    <g transform="matrix(-1.60608,1.19184,1.19184,1.60608,95.8477,866.124)">
        <path d="M5.908,-44.602C16.307,-30.588 13.367,-10.725 -0.647,-0.326L5.908,8.508C24.792,-5.506 28.756,-32.272 14.741,-51.157L5.908,-44.602Z" style="fill:rgb(13,84,162);fill-rule:nonzero;"/>
    </g>
    <g transform="matrix(0,-2,-2,0,95.9998,960.694)">
        <ellipse cx="-37.15" cy="0" rx="37.149" ry="37.15" style="fill:none;stroke:rgb(28,136,15);stroke-width:11px;"/>
    </g>
    <g transform="matrix(0,-2,-2,0,95.9998,960.694)">
        <ellipse cx="-37.15" cy="0" rx="37.149" ry="37.15" style="fill:none;stroke:rgb(28,136,15);stroke-width:11px;"/>
    </g>
    <g transform="matrix(-1.60608,1.19184,1.19184,1.60608,95.8477,983.072)">
        <path d="M5.908,-44.602C16.308,-30.587 13.367,-10.725 -0.647,-0.326L5.908,8.508C24.792,-5.506 28.756,-32.271 14.741,-51.157L5.908,-44.602Z" style="fill:rgb(255,113,166);fill-rule:nonzero;"/>
    </g>
    <g transform="matrix(-1.60608,1.19184,1.19184,1.60608,95.3477,1099.59)">
        <path d="M5.908,-44.602C16.307,-30.588 13.367,-10.725 -0.647,-0.326L5.908,8.508C24.792,-5.506 28.756,-32.272 14.741,-51.157L5.908,-44.602Z" style="fill:rgb(28,136,15);fill-rule:nonzero;"/>
    </g>
    <g transform="matrix(0,-2,-2,0,95.9998,1075.47)">
        <ellipse cx="-37.15" cy="0" rx="37.149" ry="37.15" style="fill:none;stroke:rgb(255,212,0);stroke-width:11px;"/>
    </g>
    <g transform="matrix(-1.60608,1.19184,1.19184,1.60608,95.3477,1214.83)">
        <path d="M5.908,-44.602C16.307,-30.588 13.367,-10.725 -0.647,-0.326L5.908,8.508C24.792,-5.506 28.756,-32.272 14.741,-51.157L5.908,-44.602Z" style="fill:rgb(246,188,28);fill-rule:nonzero;"/>
    </g>
    <g transform="matrix(-1.60608,1.19184,1.19184,1.60608,95.3477,1099.59)">
        <path d="M5.908,-44.602C16.307,-30.588 13.367,-10.725 -0.647,-0.326L5.908,8.508C24.792,-5.506 28.756,-32.272 14.741,-51.157L5.908,-44.602Z" style="fill:rgb(28,136,15);fill-rule:nonzero;"/>
    </g>
    <g transform="matrix(0,-2,-2,0,95.9998,1190.53)">
        <ellipse cx="-37.15" cy="0" rx="37.149" ry="37.15" style="fill:none;stroke:rgb(13,84,162);stroke-width:11px;"/>
    </g>
    <g transform="matrix(-1.60608,1.19184,1.19184,1.60608,95.3477,1329.36)">
        <path d="M5.908,-44.602C16.307,-30.588 13.367,-10.725 -0.647,-0.326L5.908,8.508C24.792,-5.506 28.756,-32.272 14.741,-51.157L5.908,-44.602Z" style="fill:rgb(31,90,198);fill-rule:nonzero;"/>
    </g>
    <g transform="matrix(-1.60608,1.19184,1.19184,1.60608,95.3477,1214.83)">
        <path d="M5.908,-44.602C16.307,-30.588 13.367,-10.725 -0.647,-0.326L5.908,8.508C24.792,-5.506 28.756,-32.272 14.741,-51.157L5.908,-44.602Z" style="fill:rgb(255,212,0);fill-rule:nonzero;"/>
    </g>
    <g transform="matrix(0,-2,-2,0,95.9998,1307.42)">
        <ellipse cx="-37.15" cy="0" rx="37.149" ry="37.15" style="fill:none;stroke:rgb(255,113,166);stroke-width:11px;"/>
    </g>
    <g transform="matrix(-1.60608,1.19184,1.19184,1.60608,95.3477,1446.31)">
        <path d="M5.908,-44.602C16.308,-30.587 13.367,-10.725 -0.647,-0.326L5.908,8.508C24.792,-5.506 28.756,-32.271 14.741,-51.157L5.908,-44.602Z" style="fill:rgb(255,113,166);fill-rule:nonzero;"/>
    </g>
    <g transform="matrix(-1.60608,1.19184,1.19184,1.60608,95.3477,1329.36)">
        <path d="M5.908,-44.602C16.307,-30.588 13.367,-10.725 -0.647,-0.326L5.908,8.508C24.792,-5.506 28.756,-32.272 14.741,-51.157L5.908,-44.602Z" style="fill:rgb(13,84,162);fill-rule:nonzero;"/>
    </g>
</svg>
